<?xml version="1.0" encoding="UTF-8" standalone="no"?>

<svg xmlns:rdf="http://www.w3.org/1999/02/22-rdf-syntax-ns#" xmlns="http://www.w3.org/2000/svg" enable-background="new -0.75 0 320 125" xml:space="preserve" height="125px" viewBox="-0.75 0 320 125" width="320px" version="1.1" y="0px" x="0px" xmlns:cc="http://creativecommons.org/ns#" xmlns:xlink="http://www.w3.org/1999/xlink" xmlns:dc="http://purl.org/dc/elements/1.1/"><metadata><rdf:RDF><cc:Work rdf:about=""><dc:format>image/svg+xml</dc:format><dc:type rdf:resource="http://purl.org/dc/dcmitype/StillImage"/><dc:title/></cc:Work></rdf:RDF></metadata>
		<defs>
			<polyline id="SVGID_1_" points="1225.4,866,-423.42,866,-423.42,-452,1225.4,-452"/>
		</defs>
		<clipPath id="SVGID_2_">
			<use overflow="visible" xlink:href="#SVGID_1_"/>
		</clipPath>
		<path fill="#221F1F" d="M170.76,0.188h15.213v36.444h0.269c4.137-6.901,12.811-11.182,20.552-11.182,21.75,0,32.297,17.124,32.297,37.972,0,19.184-9.341,37.27-29.763,37.27-9.342,0-19.351-2.342-23.89-11.732h-0.264v9.807h-14.415v-98.575-0.002zm34.03,37.687c-12.807,0-19.351,10.08-19.351,25.266,0,14.354,7.076,25.129,19.351,25.129,13.882,0,19.086-12.703,19.086-25.129-0.01-12.975-6.55-25.266-19.09-25.266" clip-path="url(#SVGID_2_)"/>
		<defs>
			<polyline id="SVGID_3_" points="1225.4,866,-423.42,866,-423.42,-452,1225.4,-452"/>
		</defs>
		<clipPath id="SVGID_4_">
			<use overflow="visible" xlink:href="#SVGID_3_"/>
		</clipPath>
		<path fill="#221F1F" d="M295.17,51.271c-1.202-8.698-7.34-13.395-15.747-13.395-7.878,0-18.952,4.282-18.952,25.958,0,11.874,5.069,24.439,18.284,24.439,8.807,0,14.943-6.082,16.415-16.299h15.213c-2.804,18.5-13.878,28.717-31.628,28.717-21.621,0-33.498-15.873-33.498-36.857,0-21.536,11.344-38.38,34.031-38.38,16.015,0,29.631,8.283,31.095,25.818h-15.189z" clip-path="url(#SVGID_4_)"/>
		<defs>
			<polyline id="SVGID_5_" points="1225.4,866,-423.42,866,-423.42,-452,1225.4,-452"/>
		</defs>
		<clipPath id="SVGID_6_">
			<use overflow="visible" xlink:href="#SVGID_5_"/>
		</clipPath>
		<polygon fill="#629AA9" points="117.78,98.551,3.902,98.551,57.081,0.386,170.96,0.386" clip-path="url(#SVGID_6_)"/>
</svg>
