<?xml version="1.0" encoding="UTF-8" standalone="no"?>
<svg width="53px" height="40px" viewBox="0 0 53 40" version="1.1" xmlns="http://www.w3.org/2000/svg" xmlns:xlink="http://www.w3.org/1999/xlink">
    <!-- Generator: Sketch 3.8.3 (29802) - http://www.bohemiancoding.com/sketch -->
    <title>check</title>
    <desc>Created with Sketch.</desc>
    <defs></defs>
    <g id="Page-1" stroke="none" stroke-width="1" fill="none" fill-rule="evenodd">
        <path d="M52.2142204,7.80028762 C52.2142204,8.69815403 51.8999667,9.46134289 51.2714594,10.0898502 L26.8943567,34.4669529 L22.3152316,39.0460781 C21.6867243,39.6745854 20.9235374,39.988839 20.025669,39.988839 C19.1278026,39.988839 18.3646137,39.6745854 17.7361064,39.0460781 L13.1569833,34.4669529 L0.968430936,22.2784026 C0.339923645,21.6498953 0.02567,20.8867064 0.02567,19.98884 C0.02567,19.0909716 0.339923645,18.3277847 0.968430936,17.6992774 L5.54755405,13.1201523 C6.17606134,12.491645 6.9392502,12.1773914 7.83711661,12.1773914 C8.73498503,12.1773914 9.49817188,12.491645 10.1266792,13.1201523 L20.025669,23.052812 L42.1132112,0.931599936 C42.7417185,0.303092645 43.5049054,-0.011161 44.4027738,-0.011161 C45.3006402,-0.011161 46.063829,0.303092645 46.6923363,0.931599936 L51.2714594,5.51072506 C51.8999667,6.13923235 52.2142204,6.9024192 52.2142204,7.80028762 L52.2142204,7.80028762 Z" id="check" fill="#1DC347"></path>
    </g>
</svg>