<?xml version="1.0" encoding="UTF-8" standalone="no"?>
<svg xmlns:rdf="http://www.w3.org/1999/02/22-rdf-syntax-ns#" xmlns="http://www.w3.org/2000/svg" xml:space="preserve" overflow="visible" height="125" viewBox="0 0 800 125" width="800" version="1.1" enable-background="new 0 0 800 125" xmlns:cc="http://creativecommons.org/ns#" xmlns:xlink="http://www.w3.org/1999/xlink" xmlns:dc="http://purl.org/dc/elements/1.1/"><metadata><rdf:RDF><cc:Work rdf:about=""><dc:format>image/svg+xml</dc:format><dc:type rdf:resource="http://purl.org/dc/dcmitype/StillImage"/><dc:title/></cc:Work></rdf:RDF></metadata>
	<defs>
		<polyline id="XMLID_19_" points="1225.4,866,-423.42,866,-423.42,-452,1225.4,-452"/>
	</defs>
	<clipPath id="XMLID_21_">
		<use xlink:href="#XMLID_19_"/>
	</clipPath>
	<path fill="#FFF" d="M170.76,0.188h15.213v36.444h0.269c4.137-6.901,12.811-11.182,20.552-11.182,21.75,0,32.297,17.124,32.297,37.972,0,19.184-9.341,37.27-29.763,37.27-9.342,0-19.351-2.342-23.89-11.734h-0.264v9.806h-14.415v-98.574zm34.03,37.687c-12.807,0-19.351,10.08-19.351,25.265,0,14.354,7.076,25.129,19.351,25.129,13.882,0,19.086-12.702,19.086-25.129-0.01-12.974-6.55-25.265-19.09-25.265" clip-path="url(#XMLID_21_)"/>
	<path fill="#FFF" d="M356.94,25.45c-9.075,0-16.951,4.831-21.489,12.705l-0.265-0.28v-10.49h-14.414v60.788c-8.677,0.099-9.485,0.099-10.147,0.099-2.802,0-3.604-1.519-3.604-5.385v-36.728c0-15.044-14.146-20.709-27.629-20.709-15.214,0-30.292,5.382-31.356,23.749h15.21c0.67-7.732,6.672-11.324,15.214-11.324,6.138,0,14.28,1.523,14.28,9.667,0,9.249-9.742,8.006-20.686,10.08-12.813,1.514-26.557,4.421-26.557,22.222,0,13.949,11.209,20.848,23.619,20.848,8.143,0,17.883-2.624,23.892-8.688,1.196,6.484,5.606,8.688,11.743,8.688,2.535,0,7.339-0.963,31.139-1.792v-0.14h0.094v-42.103c0-10.496,6.541-18.78,16.682-18.78,8.941,0,13.216,4.835,13.48,16.015v44.87h15.219v-49.009c0.03-16.014-9.45-24.301-24.4-24.301m-65.13,49.289c0,9.939-10.41,13.532-17.083,13.532-5.34,0-14.017-2.078-14.017-9.114,0-8.287,5.875-10.773,12.417-11.879,6.67-1.241,14.011-1.098,18.683-4.274v11.735z" clip-path="url(#XMLID_21_)"/>
	<path fill="#FFF" d="M459.71,98.762h-14.415v-9.665h-0.264c-4.003,8.145-12.681,11.595-21.355,11.595-21.75,0-32.296-16.707-32.296-38.102,0-25.817,14.815-37.138,29.898-37.138,8.67,0,18.279,3.315,22.951,11.18h0.27v-36.441h15.212v98.573zm-34.03-10.491c13.611,0,19.351-12.841,19.351-25.268,0-15.733-7.339-25.127-19.086-25.127-14.281,0-19.352,13.117-19.352,25.954,0,12.288,5.87,24.441,19.09,24.441" clip-path="url(#XMLID_21_)"/>
	<path fill="#FFF" d="M520.17,51.271c-1.202-8.698-7.34-13.395-15.747-13.395-7.878,0-18.952,4.282-18.952,25.958,0,11.874,5.069,24.439,18.284,24.439,8.807,0,14.943-6.081,16.415-16.298h15.213c-2.804,18.499-13.878,28.717-31.628,28.717-21.621,0-33.498-15.873-33.498-36.858,0-21.536,11.344-38.38,34.031-38.38,16.015,0,29.631,8.283,31.095,25.818h-15.19z" clip-path="url(#XMLID_21_)"/>
	<path fill="#FFF" d="M693.68,25.45c-10.008,0-16.548,4.559-21.618,11.873-3.073-8.141-10.947-11.873-19.353-11.873-10.946,0-16.685,4.831-21.221,11.873h-0.4v-9.938h-14.42v60.788c-8.676,0.099-9.483,0.099-10.15,0.099-2.803,0-3.6-1.519-3.6-5.385v-36.728c0-15.044-14.146-20.709-27.631-20.709-15.21,0-30.293,5.382-31.362,23.749h15.219c0.663-7.732,6.671-11.324,15.213-11.324,6.138,0,14.28,1.523,14.28,9.667,0,9.249-9.744,8.006-20.688,10.08-12.812,1.514-26.557,4.421-26.557,22.222,0,13.949,11.208,20.848,23.621,20.848,8.142,0,17.884-2.624,23.888-8.688,1.202,6.484,5.604,8.688,11.747,8.688,2.535,0,7.34-0.963,30.92-1.792v-0.14h0.313v-42.38c0-11.873,7.21-18.503,15.084-18.503,9.208,0,12.146,5.243,12.146,15.053v45.832h15.211v-41.831c0-12.013,4.403-19.053,14.681-19.053,11.878,0,12.545,7.869,12.545,19.194v41.69h15.213v-49.285c0.01-17.399-8.53-24.025-23.07-24.025m-105.98,49.289c0,9.939-10.407,13.532-17.084,13.532-5.335,0-14.011-2.078-14.011-9.114,0-8.287,5.875-10.773,12.41-11.879,6.677-1.241,14.017-1.098,18.685-4.274v11.735z" clip-path="url(#XMLID_21_)"/>
	<path fill="#FFF" d="M730.52,27.385h14.414v9.664h0.264c4.272-8.143,12.545-11.599,21.354-11.599,21.754,0,32.298,17.124,32.298,37.972,0,19.184-9.345,37.27-29.76,37.27-8.808,0-18.287-3.313-23.088-11.176h-0.27v35.61h-15.213v-97.735zm34.03,10.49c-12.813,0-19.354,10.08-19.354,25.265,0,14.354,7.074,25.129,19.354,25.129,13.877,0,19.086-12.702,19.086-25.129,0-12.974-6.55-25.265-19.09-25.265" clip-path="url(#XMLID_21_)"/>
	<polygon fill="#FFF" points="117.78,98.551,3.902,98.551,57.081,0.386,170.96,0.386" clip-path="url(#XMLID_21_)"/>
</svg>
