<?xml version="1.0" encoding="UTF-8" standalone="no"?>
<svg width="42px" height="44px" viewBox="0 0 42 44" version="1.1" xmlns="http://www.w3.org/2000/svg" xmlns:xlink="http://www.w3.org/1999/xlink">
    <!-- Generator: Sketch 3.8.3 (29802) - http://www.bohemiancoding.com/sketch -->
    <title>spinner</title>
    <desc>Created with Sketch.</desc>
    <defs></defs>
    <g id="Page-1" stroke="none" stroke-width="1" fill="none" fill-rule="evenodd">
        <g id="spinner" fill="#000000">
            <path d="M11.708706,35.541294 C11.708706,36.428571 11.39481,37.1861055 10.7670195,37.8138945 C10.1392305,38.441685 9.381696,38.755581 8.494419,38.755581 C7.6238835,38.755581 6.8705355,38.4375 6.234375,37.8013395 C5.5982145,37.165179 5.2801335,36.411831 5.2801335,35.541294 C5.2801335,34.6540185 5.5940295,33.896484 6.2218185,33.2686935 C6.849609,32.6409045 7.6071435,32.3270085 8.494419,32.3270085 C9.381696,32.3270085 10.1392305,32.6409045 10.7670195,33.2686935 C11.39481,33.896484 11.708706,34.6540185 11.708706,35.541294 L11.708706,35.541294 Z M24.2142855,40.7142855 C24.2142855,41.6015625 23.900391,42.3590955 23.2726005,42.986886 C22.64481,43.6146765 21.887277,43.928571 21,43.928571 C20.112723,43.928571 19.35519,43.6146765 18.7273995,42.986886 C18.099609,42.3590955 17.7857145,41.6015625 17.7857145,40.7142855 C17.7857145,39.8270085 18.099609,39.0694755 18.7273995,38.441685 C19.35519,37.8138945 20.112723,37.5 21,37.5 C21.887277,37.5 22.64481,37.8138945 23.2726005,38.441685 C23.900391,39.0694755 24.2142855,39.8270085 24.2142855,40.7142855 L24.2142855,40.7142855 Z M6.5357145,23.0357145 C6.5357145,23.9229915 6.2218185,24.6805245 5.5940295,25.308315 C4.966239,25.9361055 4.208706,26.25 3.321429,26.25 C2.434152,26.25 1.676619,25.9361055 1.0488285,25.308315 C0.421038,24.6805245 0.1071435,23.9229915 0.1071435,23.0357145 C0.1071435,22.1484375 0.421038,21.3909045 1.0488285,20.763114 C1.676619,20.1353235 2.434152,19.821429 3.321429,19.821429 C4.208706,19.821429 4.966239,20.1353235 5.5940295,20.763114 C6.2218185,21.3909045 6.5357145,22.1484375 6.5357145,23.0357145 L6.5357145,23.0357145 Z M36.7198665,35.541294 C36.7198665,36.411831 36.4017855,37.165179 35.765625,37.8013395 C35.1294645,38.4375 34.3761165,38.755581 33.505581,38.755581 C32.618304,38.755581 31.8607695,38.441685 31.2329805,37.8138945 C30.60519,37.1861055 30.291294,36.428571 30.291294,35.541294 C30.291294,34.6540185 30.60519,33.896484 31.2329805,33.2686935 C31.8607695,32.6409045 32.618304,32.3270085 33.505581,32.3270085 C34.3928565,32.3270085 35.150391,32.6409045 35.7781815,33.2686935 C36.4059705,33.896484 36.7198665,34.6540185 36.7198665,35.541294 L36.7198665,35.541294 Z M12.512277,10.5301335 C12.512277,11.635044 12.1188615,12.5809155 11.332032,13.367745 C10.545201,14.154576 9.599331,14.5479915 8.494419,14.5479915 C7.3895085,14.5479915 6.4436385,14.154576 5.6568075,13.367745 C4.869978,12.5809155 4.4765625,11.635044 4.4765625,10.5301335 C4.4765625,9.425223 4.869978,8.479353 5.6568075,7.692522 C6.4436385,6.9056925 7.3895085,6.512277 8.494419,6.512277 C9.599331,6.512277 10.545201,6.9056925 11.332032,7.692522 C12.1188615,8.479353 12.512277,9.425223 12.512277,10.5301335 L12.512277,10.5301335 Z M41.8928565,23.0357145 C41.8928565,23.9229915 41.578962,24.6805245 40.9511715,25.308315 C40.323381,25.9361055 39.565848,26.25 38.678571,26.25 C37.791294,26.25 37.033761,25.9361055 36.4059705,25.308315 C35.7781815,24.6805245 35.4642855,23.9229915 35.4642855,23.0357145 C35.4642855,22.1484375 35.7781815,21.3909045 36.4059705,20.763114 C37.033761,20.1353235 37.791294,19.821429 38.678571,19.821429 C39.565848,19.821429 40.323381,20.1353235 40.9511715,20.763114 C41.578962,21.3909045 41.8928565,22.1484375 41.8928565,23.0357145 L41.8928565,23.0357145 Z M25.821429,5.3571435 C25.821429,6.696429 25.352679,7.834821 24.415179,8.772321 C23.477679,9.709821 22.3392855,10.178571 21,10.178571 C19.6607145,10.178571 18.522321,9.709821 17.584821,8.772321 C16.647321,7.834821 16.178571,6.696429 16.178571,5.3571435 C16.178571,4.0178565 16.647321,2.8794645 17.584821,1.9419645 C18.522321,1.0044645 19.6607145,0.5357145 21,0.5357145 C22.3392855,0.5357145 23.477679,1.0044645 24.415179,1.9419645 C25.352679,2.8794645 25.821429,4.0178565 25.821429,5.3571435 L25.821429,5.3571435 Z M39.130581,10.5301335 C39.130581,12.087054 38.578125,13.413783 37.4732145,14.5103235 C36.368304,15.606864 35.0457585,16.1551335 33.505581,16.1551335 C31.9486605,16.1551335 30.6219315,15.606864 29.525391,14.5103235 C28.4288505,13.413783 27.880581,12.087054 27.880581,10.5301335 C27.880581,8.989956 28.4288505,7.6674105 29.525391,6.5625 C30.6219315,5.4575895 31.9486605,4.9051335 33.505581,4.9051335 C35.0457585,4.9051335 36.368304,5.4575895 37.4732145,6.5625 C38.578125,7.6674105 39.130581,8.989956 39.130581,10.5301335 L39.130581,10.5301335 Z" id="Shape"></path>
        </g>
    </g>
</svg>