<?xml version="1.0" encoding="UTF-8" standalone="no"?>
<svg width="41px" height="41px" viewBox="0 0 41 41" version="1.1" xmlns="http://www.w3.org/2000/svg" xmlns:xlink="http://www.w3.org/1999/xlink">
    <!-- Generator: Sketch 3.8.3 (29802) - http://www.bohemiancoding.com/sketch -->
    <title>times</title>
    <desc>Created with Sketch.</desc>
    <defs></defs>
    <g id="Page-1" stroke="none" stroke-width="1" fill="none" fill-rule="evenodd">
        <path d="M40.84152,32.713107 C40.84152,33.6109735 40.5272664,34.3741624 39.898759,35.0026697 L35.3196337,39.581793 C34.6911264,40.2103003 33.9279395,40.524554 33.030071,40.524554 C32.1322045,40.524554 31.3690156,40.2103003 30.7405083,39.581793 L20.841518,29.6828027 L10.9425277,39.581793 C10.3140204,40.2103003 9.55083346,40.524554 8.652965,40.524554 C7.75509854,40.524554 6.99191166,40.2103003 6.36340433,39.581793 L1.78427898,35.0026697 C1.15577166,34.3741624 0.841518,33.6109735 0.841518,32.713107 C0.841518,31.8152385 1.15577166,31.0520516 1.78427898,30.4235443 L11.6832693,20.524554 L1.78427898,10.6255637 C1.15577166,9.99705635 0.841518,9.23386946 0.841518,8.336001 C0.841518,7.43813454 1.15577166,6.67494565 1.78427898,6.04643832 L6.36340433,1.46731498 C6.99191166,0.838807661 7.75509854,0.524554 8.652965,0.524554 C9.55083346,0.524554 10.3140204,0.838807661 10.9425277,1.46731498 L20.841518,11.3663053 L30.7405083,1.46731498 C31.3690156,0.838807661 32.1322045,0.524554 33.030071,0.524554 C33.9279395,0.524554 34.6911264,0.838807661 35.3196337,1.46731498 L39.898759,6.04643832 C40.5272664,6.67494565 40.84152,7.43813454 40.84152,8.336001 C40.84152,9.23386946 40.5272664,9.99705635 39.898759,10.6255637 L29.9997687,20.524554 L39.898759,30.4235443 C40.5272664,31.0520516 40.84152,31.8152385 40.84152,32.713107 L40.84152,32.713107 Z" id="times" fill="#D0011B"></path>
    </g>
</svg>